<?xml version="1.0" encoding="utf-8"?>
<!-- Generator: Adobe Illustrator 17.0.0, SVG Export Plug-In . SVG Version: 6.00 Build 0)  -->
<!DOCTYPE svg PUBLIC "-//W3C//DTD SVG 1.1//EN" "http://www.w3.org/Graphics/SVG/1.1/DTD/svg11.dtd">
<svg version="1.1" id="Layer_1" xmlns="http://www.w3.org/2000/svg" xmlns:xlink="http://www.w3.org/1999/xlink" x="0px" y="0px"
	 width="40px" height="40px" viewBox="0 0 40 40" enable-background="new 0 0 40 40" xml:space="preserve">
<title>7ADB47BB-2CBB-4A71-A072-B61E5C310992</title>
<desc>Created with sketchtool.</desc>
<g id="Symbols">
	<g id="FOOTER_GRAY_2" transform="translate(-1056.000000, -32.000000)">
		<g id="social_ico">
			<g transform="translate(1008.000000, 32.000000)">
				<g id="ic_social_instagram_white" transform="translate(48.000000, 0.000000)">
					<g id="_x2D_g-ic_x5F_social_x5F_instagram_x5F_white">
						<path id="Fill-1" fill="#EA3A3E" d="M20,9c-3,0-3.4,0-4.5,0.1c-1.2,0.1-2,0.2-2.7,0.5s-1.3,0.7-1.9,1.3
							c-0.6,0.6-1,1.2-1.3,1.9s-0.5,1.5-0.5,2.7C9,16.7,9,17,9,20s0,3.4,0.1,4.5c0.1,1.2,0.2,2,0.5,2.7s0.7,1.3,1.3,1.9
							c0.6,0.6,1.2,1,1.9,1.3s1.5,0.5,2.7,0.5C16.7,31,17,31,20,31s3.4,0,4.5-0.1c1.2-0.1,2-0.2,2.7-0.5s1.3-0.7,1.9-1.3
							c0.6-0.6,1-1.2,1.3-1.9s0.5-1.5,0.5-2.7C31,23.3,31,23,31,20s0-3.4-0.1-4.5c-0.1-1.2-0.2-2-0.5-2.7s-0.7-1.3-1.3-1.9
							c-0.6-0.6-1.2-1-1.9-1.3s-1.5-0.5-2.7-0.5C23.4,9,23,9,20,9 M20,10c2.9,0,3.3,0,4.5,0.1c0.9,0,1.7,0.2,2.4,0.4
							c0.6,0.2,1.1,0.6,1.6,1c0.5,0.5,0.8,1,1,1.6c0.3,0.7,0.4,1.4,0.4,2.4C30,16.7,30,17,30,20c0,2.9,0,3.3-0.1,4.5
							c0,0.9-0.2,1.7-0.4,2.4c-0.2,0.6-0.6,1.1-1,1.6c-0.5,0.5-1,0.8-1.6,1c-0.7,0.3-1.4,0.4-2.4,0.4C23.3,30,23,30,20,30
							s-3.3,0-4.5-0.1c-0.9,0-1.7-0.2-2.4-0.4c-0.6-0.2-1.1-0.6-1.6-1c-0.5-0.5-0.8-1-1-1.6c-0.3-0.7-0.4-1.4-0.4-2.4
							C10,23.3,10,23,10,20c0-2.9,0-3.3,0.1-4.5c0-0.9,0.2-1.7,0.4-2.4c0.2-0.6,0.6-1.1,1-1.6c0.5-0.5,1-0.8,1.6-1
							c0.7-0.3,1.4-0.4,2.4-0.4C16.7,10,17.1,10,20,10"/>
						<path id="Fill-3" fill="#EA3A3E" d="M20,14.3c-3.1,0-5.6,2.5-5.6,5.6s2.5,5.6,5.6,5.6s5.6-2.5,5.6-5.6
							C25.6,16.9,23.1,14.3,20,14.3 M20,15.3c2.6,0,4.6,2.1,4.6,4.6c0,2.6-2.1,4.6-4.6,4.6s-4.6-2.1-4.6-4.6S17.4,15.3,20,15.3"/>
						<path id="Fill-5" fill="#EA3A3E" d="M25.9,13.1c-0.6,0-1,0.4-1,1s0.4,1,1,1s1-0.4,1-1S26.4,13.1,25.9,13.1"/>
						<path id="Fill-7" fill="#EA3A3E" d="M20,39C9.5,39,1,30.5,1,20S9.5,1,20,1s19,8.5,19,19C39,30.4,30.5,39,20,39 M20,0
							C9,0,0,9,0,20s9,20,20,20s20-9,20-20C40,8.9,31,0,20,0"/>
					</g>
				</g>
			</g>
		</g>
	</g>
</g>
</svg>
