<?xml version="1.0" encoding="utf-8"?>
<!-- Generator: Adobe Illustrator 17.0.0, SVG Export Plug-In . SVG Version: 6.00 Build 0)  -->
<!DOCTYPE svg PUBLIC "-//W3C//DTD SVG 1.1//EN" "http://www.w3.org/Graphics/SVG/1.1/DTD/svg11.dtd">
<svg version="1.1" id="Layer_1" xmlns="http://www.w3.org/2000/svg" xmlns:xlink="http://www.w3.org/1999/xlink" x="0px" y="0px"
	 width="40px" height="40px" viewBox="0 0 40 40" enable-background="new 0 0 40 40" xml:space="preserve">
<title>ic_social_twitter_color</title>
<path fill="#EA3A3E" d="M30.4,13.4c0-0.1,0.1-0.2,0.1-0.3c0.2-0.5-0.1-1.1-0.7-1.3c-0.3-0.1-0.6-0.1-0.8,0.1
	c-0.5,0.3-1.1,0.6-1.7,0.7c-2.1-1.7-5.2-1.5-7,0.6c-0.7,0.8-1.1,1.9-1.1,2.9c-2.5-0.4-4.7-1.7-6.2-3.6c-0.2-0.2-0.5-0.4-0.8-0.4
	h-0.1c-0.3,0-0.6,0.2-0.8,0.5c-0.8,1.4-0.9,3-0.3,4.5c-0.3,0.2-0.5,0.5-0.5,0.9c0,1.3,0.5,2.6,1.5,3.5c-0.1,0.2-0.1,0.5,0,0.7
	c0.4,1.1,1.1,2.1,2.1,2.7c-0.8,0.3-1.6,0.4-2.4,0.4c-0.3,0-0.5,0-0.8,0h-0.1c-0.6,0-1,0.5-1,1c0,0.3,0.2,0.7,0.5,0.8
	c5.7,3.6,13.2,2,16.9-3.7c1.3-2,1.9-4.3,1.9-6.6l0,0c0.7-0.6,1.3-1.2,1.8-2c0.3-0.4,0.3-1.1-0.2-1.4C30.6,13.5,30.5,13.4,30.4,13.4z
	 M28.1,16.4L28.1,16.4c0,0.2,0,0.3,0,0.5c0,6.2-5,11.2-11.2,11.2c-2.1,0-4.2-0.6-6-1.8c0.3,0,0.6,0.1,0.9,0.1c1.8,0,3.5-0.6,4.9-1.7
	c-1.7,0-3.1-1.1-3.7-2.7c0.2,0,0.5,0.1,0.7,0.1c0.3,0,0.7-0.1,1-0.1c-1.8-0.4-3.1-2-3.1-3.9l0,0c0.5,0.3,1.2,0.5,1.8,0.5
	c-1.7-1.2-2.3-3.5-1.2-5.3c2,2.5,5,4,8.1,4.1c-0.1-0.3-0.1-0.6-0.1-0.9c0-2.2,1.8-3.9,3.9-3.9c1.1,0,2.1,0.5,2.9,1.2
	c0.9-0.2,1.7-0.5,2.5-1c-0.3,0.9-0.9,1.7-1.7,2.2c0.8-0.1,1.5-0.3,2.3-0.6C29.6,15.1,28.9,15.8,28.1,16.4L28.1,16.4z"/>
<path fill="#EA3A3E" d="M20,0C9,0,0,9,0,20s9,20,20,20s20-9,20-20S31,0,20,0z M20,39C9.5,39,1,30.5,1,20S9.5,1,20,1s19,8.5,19,19
	l0,0C39,30.5,30.5,39,20,39z"/>
</svg>
