<?xml version="1.0" encoding="utf-8"?>
<!-- Generator: Adobe Illustrator 17.0.0, SVG Export Plug-In . SVG Version: 6.00 Build 0)  -->
<!DOCTYPE svg PUBLIC "-//W3C//DTD SVG 1.1//EN" "http://www.w3.org/Graphics/SVG/1.1/DTD/svg11.dtd">
<svg version="1.1" id="Layer_1" xmlns="http://www.w3.org/2000/svg" xmlns:xlink="http://www.w3.org/1999/xlink" x="0px" y="0px"
	 width="40px" height="40px" viewBox="0 0 40 40" enable-background="new 0 0 40 40" xml:space="preserve">
<title>ic_social_facebook_color</title>
<path fill="#EA3A3E" d="M24.7,9.5h-3c-3,0.1-5.4,2.6-5.3,5.6v0.1V16h-2.2c-0.6,0-1,0.4-1,1v3.1c0,0.6,0.4,1,1,1h2.2v8.3
	c0,0.6,0.4,1,1,1h3.5c0.6,0,1-0.4,1-1v-8.3h2.2c0.5,0,0.9-0.3,1-0.8l0.6-3.1c0.1-0.5-0.3-1.1-0.8-1.2c-0.1,0-0.1,0-0.2,0h-2.8v-1.2
	v-0.1h2.8c0.6,0,1-0.4,1-1v-3.3C25.7,10,25.3,9.5,24.7,9.5L24.7,9.5z M24.7,13.8h-3c-0.5,0.1-0.8,0.6-0.8,1.1v2.2h3.8l-0.6,3.1h-3.2
	v9.3h-3.5v-9.3h-3.2v-3.1h3.2v-1.8c-0.2-2.5,1.7-4.6,4.2-4.7h0.1h3V13.8L24.7,13.8z"/>
<path fill="#EA3A3E" d="M20,0C9,0,0,9,0,20s9,20,20,20s20-9,20-20l0,0C40,8.9,31,0,20,0z M20,39C9.5,39,1,30.5,1,20S9.5,1,20,1
	s19,8.5,19,19l0,0C39,30.5,30.5,39,20,39z"/>
</svg>
