<?xml version="1.0" encoding="utf-8"?>
<!-- Generator: Adobe Illustrator 17.0.0, SVG Export Plug-In . SVG Version: 6.00 Build 0)  -->
<!DOCTYPE svg PUBLIC "-//W3C//DTD SVG 1.1//EN" "http://www.w3.org/Graphics/SVG/1.1/DTD/svg11.dtd">
<svg version="1.1" id="Layer_1" xmlns="http://www.w3.org/2000/svg" xmlns:xlink="http://www.w3.org/1999/xlink" x="0px" y="0px"
	 width="1080px" height="841.89px" viewBox="0 0 1080 841.89" enable-background="new 0 0 1080 841.89" xml:space="preserve">
<g>
	<g>
		<path fill="#D70F64" d="M641.803,406.086h7.904v-7.588c0-9.169,5.059-15.176,15.176-15.176l5.059,0.948v9.169l-5.375-0.948
			c-3.162,0-4.426,1.897-4.426,5.059v8.536h10.117v9.169h-10.117v37.939h-10.117v-37.939h-8.22V406.086z"/>
		<path fill="#D70F64" d="M695.867,405.137c12.963,0,24.66,10.117,24.66,24.66c0,14.543-11.382,24.66-24.66,24.66
			s-24.66-10.117-24.66-24.66C671.206,414.938,682.904,405.137,695.867,405.137z M695.867,445.289
			c9.485,0,14.543-6.956,14.543-15.492c0-8.536-5.059-15.492-14.543-15.492c-9.485,0-14.543,6.956-14.543,15.492
			C681.323,438.018,686.382,445.289,695.867,445.289z"/>
		<path fill="#D70F64" d="M749.297,405.137c12.963,0,24.66,10.117,24.66,24.66c0,14.543-11.382,24.66-24.66,24.66
			s-24.66-10.117-24.66-24.66C724.953,414.938,736.335,405.137,749.297,405.137z M749.297,445.289
			c9.485,0,14.543-6.956,14.543-15.492c0-8.536-5.059-15.492-14.543-15.492s-14.543,6.956-14.543,15.492
			C734.754,438.018,739.813,445.289,749.297,445.289z"/>
		<path fill="#D70F64" d="M826.44,453.193h-9.169l-0.948-4.11l-0.632-0.632l-0.632,0.632c-3.162,3.162-7.904,5.059-12.963,5.059
			c-12.963,0-24.028-10.117-24.028-24.66s11.066-24.66,24.028-24.66c5.059,0,10.117,1.897,12.963,5.059l0.632,0.632l0.632-0.632
			v-26.241h10.117L826.44,453.193L826.44,453.193z M802.728,413.99c-9.485,0-14.543,6.956-14.543,15.492
			c0,8.536,5.059,15.492,14.543,15.492c8.536,0,14.543-6.956,14.543-15.492C817.272,421.261,811.265,413.99,802.728,413.99z"/>
		<path fill="#D70F64" d="M836.557,406.086h9.169l0.948,4.11l0.632,0.632l0.632-0.632c3.162-3.162,7.904-5.059,12.963-5.059
			c12.963,0,24.028,10.117,24.028,24.66c0,14.543-11.066,24.66-24.028,24.66c-5.059,0-10.117-1.897-12.963-5.059l-0.632-0.632
			l-0.632,0.632v25.293h-9.801v-68.607H836.557z M859.953,445.289c9.485,0,14.543-6.956,14.543-15.492
			c0-8.536-5.059-15.492-14.543-15.492c-8.536,0-14.543,6.956-14.543,15.492C845.41,438.018,851.417,445.289,859.953,445.289z"/>
		<path fill="#D70F64" d="M909.906,423.79h8.22v-2.213c0-5.691-3.794-8.22-9.169-8.22c-4.426,0-7.272,2.213-8.852,6.323
			l-8.852-1.897c1.897-7.904,8.852-12.963,18.021-12.963c12.646,0,18.97,6.323,18.97,18.653v29.403h-8.22l-0.948-6.323
			c-3.162,4.742-8.22,6.956-14.859,6.956c-8.536,0-14.543-5.059-14.543-14.543C889.356,429.797,897.576,423.79,909.906,423.79z
			 M905.48,445.289c3.162,0,6.323-0.948,8.536-3.162c2.529-2.213,3.794-5.059,3.794-8.852v-0.948h-8.536
			c-6.007,0-9.801,2.845-9.801,7.272C899.473,442.76,901.686,445.289,905.48,445.289z"/>
		<path fill="#D70F64" d="M937.096,406.086h9.169l0.948,4.11l0.632,0.632l0.632-0.632c1.897-3.162,6.956-5.059,11.066-5.059
			c12.014,0,18.97,7.904,18.97,18.97v29.087h-10.117v-29.087c-0.316-6.323-3.478-10.117-10.117-10.117
			c-6.007,0-10.749,4.742-11.066,10.749v28.454h-10.117L937.096,406.086L937.096,406.086z"/>
		<path fill="#D70F64" d="M1032.576,453.193h-9.169l-0.948-4.11l-0.632-0.632l-0.632,0.632c-3.162,3.162-7.904,5.059-12.963,5.059
			c-12.963,0-24.028-10.117-24.028-24.66s11.066-24.66,24.028-24.66c5.059,0,10.117,1.897,12.963,5.059l0.632,0.632l0.632-0.632
			v-26.241h10.117V453.193L1032.576,453.193z M1009.18,413.99c-9.485,0-14.543,6.956-14.543,15.492
			c0,8.536,5.059,15.492,14.543,15.492c8.536,0,14.543-6.956,14.543-15.492C1023.724,421.261,1017.717,413.99,1009.18,413.99z"/>
		<path fill="#D70F64" d="M1061.347,423.79h8.22v-2.213c0-5.691-3.794-8.22-9.169-8.22c-4.426,0-7.272,2.213-8.852,6.323
			l-8.852-1.897c1.897-7.904,8.852-12.963,18.021-12.963c12.646,0,18.97,6.323,18.97,18.653v29.403h-8.22l-0.948-6.323
			c-3.161,4.742-8.22,6.956-14.859,6.956c-8.536,0-14.543-5.059-14.543-14.543C1040.796,429.797,1048.7,423.79,1061.347,423.79z
			 M1056.92,445.289c3.162,0,6.323-0.948,8.536-3.162c2.529-2.213,3.794-5.059,3.794-8.852v-0.948h-8.536
			c-6.007,0-9.801,2.845-9.801,7.272C1050.913,442.76,1053.126,445.289,1056.92,445.289z"/>
	</g>
	<g>
		<path fill="#D70F64" d="M571.932,438.334c5.691,0,10.433-4.11,10.433-9.169h-20.867
			C561.499,434.224,565.925,438.334,571.932,438.334z"/>
		<g>
			<path fill="#D70F64" d="M607.026,394.704c2.529-1.897,3.794-5.059,3.794-8.536c0-6.323-5.059-11.066-11.382-11.066
				c-4.11,0-7.588,1.897-9.485,5.059c-5.691-2.845-12.014-4.11-18.337-4.11c-6.639,0-12.963,1.581-18.337,4.11
				c-1.897-3.162-5.375-5.059-9.485-5.059c-6.323,0-11.382,5.059-11.382,11.066c0,3.478,1.581,6.323,3.794,8.536
				c-4.742,6.956-7.272,14.859-7.272,23.712c0,23.396,18.97,42.681,42.682,42.681c23.396,0,42.681-18.97,42.681-42.681
				C614.297,409.563,611.768,401.343,607.026,394.704z M571.932,457.619c-21.499,0-39.204-17.705-39.204-39.204
				c0-8.22,2.529-15.808,6.639-22.131c3.794-5.691,9.169-10.433,15.492-13.279c5.059-2.529,11.066-3.794,17.073-3.794
				s12.014,1.265,17.073,3.794c6.323,3.162,11.382,7.588,15.492,13.279c4.11,6.323,6.639,13.911,6.639,22.131
				C611.136,439.915,593.431,457.619,571.932,457.619z"/>
			<path fill="#D70F64" d="M571.932,426.636c0.632,0.316,7.272-2.213,7.272-5.375c0-1.897-5.375-2.213-7.272-2.213
				s-7.272,0.316-7.272,2.213C564.344,424.423,571.3,426.952,571.932,426.636z"/>
			<path fill="#D70F64" d="M596.592,400.078c-3.794-2.529-12.014-3.794-15.176,0.316c0,0-4.11,4.426,0,8.852
				c4.11,4.426,6.956,8.852,7.904,12.33c0.948,3.794,2.529,5.059,5.375,5.059c2.845,0,8.536-4.426,9.485-11.698
				C604.813,407.666,600.386,402.292,596.592,400.078z M588.056,409.247c-1.265,0-2.213-0.948-2.213-2.213
				c0-1.265,0.948-2.213,2.213-2.213c1.265,0,2.213,0.948,2.213,2.213C590.269,408.299,589.321,409.247,588.056,409.247z"/>
			<path fill="#D70F64" d="M562.131,400.395c-3.162-4.11-11.382-2.845-15.176-0.316c-3.794,2.529-8.22,7.588-7.588,14.859
				s6.323,11.698,9.485,11.698c2.845,0,4.426-1.581,5.375-5.059c0.948-3.794,4.11-7.904,7.904-12.33
				C566.241,404.505,562.131,400.395,562.131,400.395z M556.124,409.247c-1.265,0-2.213-0.948-2.213-2.213
				c0-1.265,0.948-2.213,2.213-2.213c1.265,0,2.213,0.948,2.213,2.213C558.337,408.299,557.389,409.247,556.124,409.247z"/>
		</g>
	</g>
</g>
<g>
	<g id="Font">
		<path fill="#D60365" d="M121.089,407.35h7.904v-7.588c0-9.169,5.059-15.176,15.176-15.176l5.059,0.948v9.169l-5.375-0.948
			c-3.162,0-4.426,1.897-4.426,5.059v8.536h10.117v9.169H139.11v38.255h-10.117v-38.571h-7.904V407.35z"/>
		<path fill="#D60365" d="M175.152,406.402c12.963,0,24.66,10.117,24.66,24.66c0,14.543-11.382,24.66-24.66,24.66
			c-13.279,0-24.66-10.117-24.66-24.66C150.808,416.203,162.19,406.402,175.152,406.402z M175.152,446.554
			c9.485,0,14.543-6.956,14.543-15.492c0-8.536-5.059-15.492-14.543-15.492c-9.485,0-14.543,6.956-14.543,15.492
			C160.609,439.282,165.667,446.554,175.152,446.554z"/>
		<path fill="#D60365" d="M228.899,406.402c12.963,0,24.66,10.117,24.66,24.66c0,14.543-11.382,24.66-24.66,24.66
			c-13.279,0-24.66-10.117-24.66-24.66C204.239,416.203,215.937,406.402,228.899,406.402z M228.899,446.554
			c9.485,0,14.543-6.956,14.543-15.492c0-8.536-5.059-15.492-14.543-15.492c-9.485,0-14.543,6.956-14.543,15.492
			C214.356,439.282,219.415,446.554,228.899,446.554z"/>
		<path fill="#D60365" d="M306.042,454.458h-9.169l-0.948-4.11l-0.632-0.632l-0.632,0.632c-3.162,3.162-7.904,5.059-12.963,5.059
			c-12.963,0-24.028-10.117-24.028-24.66c0-14.543,11.066-24.66,24.028-24.66c5.059,0,10.117,1.897,12.963,5.059l0.632,0.632
			l0.632-0.632v-26.241h10.117L306.042,454.458L306.042,454.458z M282.33,415.254c-9.485,0-14.543,6.956-14.543,15.492
			c0,8.536,5.059,15.492,14.543,15.492c8.536,0,14.543-6.956,14.543-15.492C296.874,422.21,290.867,415.254,282.33,415.254z"/>
		<path fill="#D60365" d="M337.026,406.402c12.963,0,24.66,10.117,24.66,24.66c0,14.543-11.382,24.66-24.66,24.66
			c-12.963,0-24.66-10.117-24.66-24.66C312.365,416.203,324.063,406.402,337.026,406.402z M337.026,446.554
			c9.485,0,14.543-6.956,14.543-15.492c0-8.536-5.059-15.492-14.543-15.492s-14.543,6.956-14.543,15.492
			C322.482,439.282,327.541,446.554,337.026,446.554z"/>
		<path fill="#D60365" d="M368.009,407.35h9.169l0.949,5.059l0.632,0.632l0.632-0.632c3.162-4.11,6.955-6.007,11.066-6.007
			c1.897,0,3.162,0,5.059,0.948v9.169h-6.007c-6.007,0-10.749,4.742-11.066,10.749v27.506h-10.117V407.35H368.009z"/>
		<path fill="#D60365" d="M420.176,425.055h8.22v-2.213c0-5.691-3.794-8.22-9.169-8.22c-4.426,0-7.272,2.213-8.852,6.323
			l-8.852-1.897c1.897-7.904,8.852-13.279,18.021-13.279c12.646,0,18.97,6.323,18.97,18.653v29.403h-8.536l-0.948-6.323
			c-3.162,4.742-8.22,6.956-14.859,6.956c-8.536,0-14.543-5.059-14.543-14.543C399.625,431.062,407.845,425.055,420.176,425.055z
			 M416.066,446.554c3.162,0,6.323-0.948,8.536-3.162c2.529-2.213,3.794-5.059,3.794-8.852v-0.948h-8.536
			c-6.007,0-9.801,2.845-9.801,7.272C410.059,444.025,412.272,446.554,416.066,446.554z"/>
	</g>
	<g id="Cloche">
		<path fill="#D60365" d="M59.438,453.193c3.478-1.265,28.77-11.382,33.829-13.279c0.632-0.316,0.632-0.948,0.316-1.265
			c-0.632-0.632-1.581-1.265-3.478-1.265c-2.529,0-24.344,6.956-24.344,6.956s-10.117,1.581-11.382,1.581
			c-1.265-0.316-1.581-0.948-1.581-1.897c0-0.948,0.632-1.897,2.529-1.897c1.897-0.316,12.963-0.948,14.859-1.897
			c1.897-1.265,1.581-3.162,0.632-3.478c-1.581-0.632-32.881-0.632-48.372-0.316c-2.213,0-6.956,0-13.911,0
			c1.265,7.588,3.478,14.227,8.22,20.234c4.426-2.213,9.485-3.794,15.176-3.478C36.042,452.877,55.328,454.458,59.438,453.193z"/>
		<path fill="#D60365" d="M97.377,426.004h-4.11l0,0c-0.948-22.131-18.653-40.152-40.785-41.101l0,0v-4.11
			c0-0.948-0.632-1.897-1.897-1.897c-0.948,0-1.897,0.632-1.897,1.897v4.11l0,0c-22.131,0.948-40.152,18.653-40.785,41.101H4.426
			c-0.948,0-1.897,0.632-1.897,1.897c0,0.948,0.632,1.897,1.897,1.897h92.951c0.948,0,1.897-0.632,1.897-1.897
			C99.274,426.636,98.642,426.004,97.377,426.004z M32.881,393.755c-2.845,3.478-9.169,12.963-9.801,26.241
			c0,1.265-0.948,2.213-1.897,2.213h-4.11c-1.265,0-2.213-1.581-1.897-3.162c1.265-5.375,5.375-17.073,17.389-25.609
			C32.881,393.123,33.197,393.439,32.881,393.755z"/>
	</g>
</g>
<rect x="486.885" y="355.5" fill="#D70F64" width="3.794" height="131.838"/>
<image overflow="visible" width="3078" height="426" xlink:href="AC37E236.jpg"  transform="matrix(0.35 0 0 0.35 2.8452 346.5146)">
</image>
</svg>
