<?xml version="1.0" encoding="utf-8"?>
<!-- Generator: Adobe Illustrator 17.0.0, SVG Export Plug-In . SVG Version: 6.00 Build 0)  -->
<!DOCTYPE svg PUBLIC "-//W3C//DTD SVG 1.1//EN" "http://www.w3.org/Graphics/SVG/1.1/DTD/svg11.dtd">
<svg version="1.1" id="Layer_1" xmlns="http://www.w3.org/2000/svg" xmlns:xlink="http://www.w3.org/1999/xlink" x="0px" y="0px"
	 width="300px" height="37px" viewBox="0 0 300 37" enable-background="new 0 0 300 37" xml:space="preserve">
<metadata><?xpacket begin="﻿" id="W5M0MpCehiHzreSzNTczkc9d"?>
<x:xmpmeta xmlns:x="adobe:ns:meta/" x:xmptk="Adobe XMP Core 5.5-c014 79.151739, 2013/04/03-12:12:15        ">
   <rdf:RDF xmlns:rdf="http://www.w3.org/1999/02/22-rdf-syntax-ns#">
      <rdf:Description rdf:about=""
            xmlns:xmp="http://ns.adobe.com/xap/1.0/"
            xmlns:xmpGImg="http://ns.adobe.com/xap/1.0/g/img/"
            xmlns:xmpTPg="http://ns.adobe.com/xap/1.0/t/pg/"
            xmlns:stDim="http://ns.adobe.com/xap/1.0/sType/Dimensions#"
            xmlns:xmpG="http://ns.adobe.com/xap/1.0/g/"
            xmlns:dc="http://purl.org/dc/elements/1.1/"
            xmlns:xmpMM="http://ns.adobe.com/xap/1.0/mm/"
            xmlns:stEvt="http://ns.adobe.com/xap/1.0/sType/ResourceEvent#"
            xmlns:stRef="http://ns.adobe.com/xap/1.0/sType/ResourceRef#">
         <xmp:CreatorTool>Adobe Illustrator CC (Windows)</xmp:CreatorTool>
         <xmp:CreateDate>2018-03-18T17:36:37+01:00</xmp:CreateDate>
         <xmp:MetadataDate>2018-03-18T17:36:38+01:00</xmp:MetadataDate>
         <xmp:ModifyDate>2018-03-18T17:36:38+01:00</xmp:ModifyDate>
         <xmp:Thumbnails>
            <rdf:Alt>
               <rdf:li rdf:parseType="Resource">
                  <xmpGImg:width>256</xmpGImg:width>
                  <xmpGImg:height>36</xmpGImg:height>
                  <xmpGImg:format>JPEG</xmpGImg:format>
                  <xmpGImg:image>/9j/4AAQSkZJRgABAgEAzgDOAAD/7QAsUGhvdG9zaG9wIDMuMAA4QklNA+0AAAAAABAAzgAAAAEA&#xA;AQDOAAAAAQAB/+4ADkFkb2JlAGTAAAAAAf/bAIQABgQEBAUEBgUFBgkGBQYJCwgGBggLDAoKCwoK&#xA;DBAMDAwMDAwQDA4PEA8ODBMTFBQTExwbGxscHx8fHx8fHx8fHwEHBwcNDA0YEBAYGhURFRofHx8f&#xA;Hx8fHx8fHx8fHx8fHx8fHx8fHx8fHx8fHx8fHx8fHx8fHx8fHx8fHx8fHx8f/8AAEQgAJAEAAwER&#xA;AAIRAQMRAf/EAaIAAAAHAQEBAQEAAAAAAAAAAAQFAwIGAQAHCAkKCwEAAgIDAQEBAQEAAAAAAAAA&#xA;AQACAwQFBgcICQoLEAACAQMDAgQCBgcDBAIGAnMBAgMRBAAFIRIxQVEGE2EicYEUMpGhBxWxQiPB&#xA;UtHhMxZi8CRygvElQzRTkqKyY3PCNUQnk6OzNhdUZHTD0uIIJoMJChgZhJRFRqS0VtNVKBry4/PE&#xA;1OT0ZXWFlaW1xdXl9WZ2hpamtsbW5vY3R1dnd4eXp7fH1+f3OEhYaHiImKi4yNjo+Ck5SVlpeYmZ&#xA;qbnJ2en5KjpKWmp6ipqqusra6voRAAICAQIDBQUEBQYECAMDbQEAAhEDBCESMUEFURNhIgZxgZEy&#xA;obHwFMHR4SNCFVJicvEzJDRDghaSUyWiY7LCB3PSNeJEgxdUkwgJChgZJjZFGidkdFU38qOzwygp&#xA;0+PzhJSktMTU5PRldYWVpbXF1eX1RlZmdoaWprbG1ub2R1dnd4eXp7fH1+f3OEhYaHiImKi4yNjo&#xA;+DlJWWl5iZmpucnZ6fkqOkpaanqKmqq6ytrq+v/aAAwDAQACEQMRAD8A9U4q4kDc7DFXYqxvz/50&#xA;t/KGgHVJIfrMryLDb23Phzdqn7VGoAqk9Mpz5vDjbtOyOzJazN4YPCKsnmxPSvz00HVrVLdaaTq8&#xA;zxxj64Q1sgZgHk9UFAQi1PxcanMU6241HaXny97t9R7K5sMif7zGAT6fq8hW/Pyt6Np1k9rCVkuZ&#xA;buWRuck0xG5IA+FVAVF26KMzMePhG5JPm81myiZ2AiB0H4spPr3/AClnlj/jLef9QrZGf1x+P3Ob&#xA;pP8AF83uh/umRZc6x2KuxV2KuxV2KuxV2KuxV2KuxV2KuxVLvMWu2eg6Ld6veB2trRObrGAXNSFA&#xA;UEgbkjvkMkxGJJcnR6WWoyxxR+qXei7K7hvbK3vICTDcxpNESKHjIoZaj5HJA2LacuMwkYnnE18l&#xA;bCwdirsVdirsVSzQ/Mel639c+oO7/ULh7S45oyUlj+0ByAqMhDIJXXRytVosmDh4/wCOIkN+hTGO&#xA;WKVS0Tq6glSykEclJVht3BFDk7caUSOa7FDsVdiqS+bfNVj5a0lr65HqSMeFtbA0aSQ9q70A6k9s&#xA;x9TqY4o8Rc3QaGepycEdh1PcHh/mPzl5u1mAXd3dmLT7h3jjtYHCR1j4sVZFPM05Dd853PqsuQWT&#xA;6T0D3Gj7O0+E8MY3MDmRvv58vkt8r+ZPNceopHZ6rOlFZ/RYvcB+CluCQHlzdqUVRuTh0mXKZiMZ&#xA;V7+THtLT6eOIznj4q7hv81fz7rGpec7i3tbsrDFowZblbL/SWuJ5Zlh528YK8l+z1bapx13aZ2BA&#xA;vfrUdt7v4NWhOPszFLIBKZyVXSh3H+xJdH/Lq11fV9EsrSe4jkv+c2oWdzEI7i2tomoZJFBbgZB9&#xA;lW7kZX2dlnnyygQOGP8AFE2D317u9z4e0Mvy0804cIH0+cj0/SfJ9OxRRxRJFGOMcahUXrQKKDrn&#xA;WgPmcpEmzzLH9e/5Szyx/wAZbz/qFbKZ/XH4/c7LSf4vm90P90yLLnWPJdM84fmb5q1nV9K0RrLT&#xA;rfTbuWOTUpIy5WMOUjjVW5qz/ASdvu74EcuWZIjQo83sc/Z2g0mLHky8c5TiPTfXmT023/tTnyn5&#xA;t812nmxvKHnBYZL6WE3Gm6hbjik6LUsCKKOit+yOh9jlmLLIT4J83B7Q7P089N+Z01iANSien495&#xA;5oO583ecfMvmLUtM8sXlppGmaPIYJ9RuVWSSaZTRlRH5DjUHt03rvTInLOciIkABvh2fptLghk1E&#xA;ZZMmQWIx2AHv/HuTHyP5x16bzHfeU/MnoS6nZxC4tr+02inhJAJI6BhzHQDvttvPDllxGEubjdqd&#xA;m4Y4I6nBxDHI0Yy5xKTeXfM35oebLu+fS7jTrCx0y+eBzLG7tKoaojI+LZV6kFSa5XjyZZk1QALm&#xA;6zQ9n6OMRkGSc5wB2PLz+fvVb/zX5w1jztqfl7StXstBXS+CxC5iV5bp2UMeIk5fD/q70I64ZZZy&#xA;mYgiNfaxw9n6bDpYZ8mOeXxL5GhH5fi2RzeYtc8seS7vVvNv1e4vrMkILIsFmDMEiryA4szN8VBQ&#xA;Df2y45JQgTPm6yOjw6rVRx6biEJfzunUsahn/PC50seYY7iwRXT6xFoJi+JoyOQXkV58yO3qfSDl&#xA;IOcji29zs5R7Jjk8EifOvEvr91fBNZvzHlvPytufNumRpFewx8Xgk+NY5hIsbDtUfFyX6K5M6i8X&#xA;GObiR7FEO0BpshuJPPvFX+wpHe61+ca+XR5wW4sIrIQi8bRViLN9XIDcmZgW5cPiI5jb32yozzcP&#xA;HtXc5+LTdmeP+WqZlfDx3/F93PbkyHXfzLjsPINj5kt7b1L3VFiSysmqQZ5QSVNKMVTi3Tr7Vy6e&#xA;orGJdS63SdiHJrJYJGo474peQ/Wk13d/nVoeky+YL+4sL+GFGnu9IEfFoowKni6KvIoN2+I9O+Vk&#xA;5ojiNHyc7Hj7Kz5BhgJwJNCd8z7j3+75LdZ8w33mH8h7nWL4It3cwkS+mCqkxXnpVAJNKhK4J5DP&#xA;BZ/G6dNo4abtcYofTE9fOF/pZ/5U/wCUX0f/AJgbb/kyuZeL6R7nndf/AIxk/ry+8pFB5r1WH8z7&#xA;nyzfiMaddWaXWkMFo5ZABIpPepWQ+3EZUMp8XhPKtnYT7Pxy0A1EL44z4Z/o/R80ksfzR1G4/Mlt&#xA;GaGMeXZriXTbW6API3VugZzzrvyZgtKdCPfK46knJX8PJzsvYUI6HxbPjCImR/Rkdvs3+acxedby&#xA;X8wtT0ZVjGiaNYevf3BB5LMeL/a8AjdKdjlgzHxCP4QHCl2ZEaKGXfxcs6iPLl9/6GO6Rrn5reck&#xA;l1nQriz0bRQ7pYQ3EYkecIStXYrIRvsSKb9spjPLk9UaAdlqNL2doiMWYTy5aHEQa4fduE0/Lzzx&#xA;5o1rzLrOja9awWs+lpGDHCGFJAeLmpZqq/2l9sngzSlIxl0cXtjsvT4MGPLhkZDITz7uny6q/ljz&#xA;H5l8w6b5lSya1tNRsdSmtLCV42MYRCu8gBqzEV3/AAyWPJKYlVWC1a7R4NNkwmfFKEsYlLfffuYv&#xA;+Stv51axMtve2a6Gt/ML23kjdp2ei8yjCgFdqb5RpBOuY4bdt7TT0onRjPxeAcJvbytM382+c/NO&#xA;u6naeWb600bSNKlNub+5VZZJ5VNG4q3JeO3h0pvvQT8Wc5ERIADijs/S6TDCWojLJkyC+EbCI/Wm&#xA;nkTzlrl1r2o+VfMYgfV7CMTw3tr/AHU8JKgtToD8a9PuFMnhyyMjGXMOJ2r2bhhhhqMF+HM0Yy5x&#xA;P4B/XuknlPzN+aXnAy3mn3Gnafp9hePBL6kTu01CHKEfEaIjKKgqT45XiyZcm4oAFz+0ND2fo6jM&#xA;ZJznC+fLz+J97Hfza12W784tbqQ0GlhI4kYBkLkCSQlTtuSFPyzUdpZjLLXSLm9g6UQ019Z/2D8e&#xA;bFl1GONpL6EtBqbzOVSNEFusMiMHCqakGrUApSmYfHXqG0r+DtThJqB3hXeeKwl2VOQjEjtLa3aa&#xA;4muracKwT00EYqdh++Lgr1/kPhmRj0pmPplLy4bH4+Dh5dXCMqJx1/Sl+j9r138kfJzaPoD6xeAN&#xA;qOrkOJK8qWwNY6NvX1Pt17imdFo8Hhx3FF5j2l7UjqMohjP7qH2k/q5fN6TmY8yx3Xv+Us8sf8Zb&#xA;z/qFbKZ/XH4/c7PSf4vm90P90yLLnWPCvI/nSfyzrvmiS6025u9Fn1Kb1Lu0T1GhmV32daj4WU+P&#xA;bvmsw5uCUrG1vf8AanZg1WHCIzjHKMY2kasUOXuZH5ck1fzl+Ytt5sOnzadoOkW8kNgbleEk7yqy&#xA;luO/aQ9CQKDfLsd5MnHVRDrNaMei0R03EJ5skgZVyjVfqY1e+WtC8reZ9XPmvy9Pqui38zXGm6nb&#xA;B39PmSxikCug7033qO4O1JxxhI8cbB5F2mLXZtXp8f5fLHHlgKlE1v5jYs5/LODypNcX19oPlqfR&#xA;4QEiiv7pSrTqSSwjDs5ABUVp179MydOI7mMadD25LUREYZs0ch58Mf4ffsFv5P6TqenWevLf20ls&#xA;ZtVneISqVLLRRyWvVa98dLEgG+9PtHqMeSWLgIlWIckp876t5MudXu7Pzj5Wu42iYpY6tBGz+vGO&#xA;hEsfpt8lPIeNMrzSgSROJ97mdl6fVRxxlpc8Tf1QJ+k+4389kv0Tyj5k178rNX0qZbhFN0Z/LsN+&#xA;eM/oxkMiPXoHFQO1TXpkIYpSxEfK3I1XaODT9oY8g4fprIY8rP6vn8Uzg/N3ULbSU0uXy7qB82RR&#xA;iAWghPpNKBxElQeXAnegX6e+TGqIFcJ4nFl7Owlk8QZcf5cm7veu73/H9SkfJmsaP+SWpaXNE02r&#xA;XIN3PbxDmys0qMVHGtSqJ8VO9cfBMcJHVn/KWLN2rDIDWOPpBO3Q/pLML2xvD+V89gIXN6dEeAW4&#xA;U+p6v1Qpw49eXLamXmJ8KuvD+h0uLLH+UBO/T4130rj5sN1Lynr99+Unl36hAw1nRjDfR2bijtw5&#xA;VXiafFRg1PanXMeWKRxRrmN3d4e0MOPtLLxn91kuN/j5Kmqfmlfa9oN1oukeXdQPmG7ge3uLeSKk&#xA;UHNSsjFya7VPHko98MtSZR4RE8THB2FDT5o5cuXH4MTYN7yrlt99EqdvourR/wDOPrac9nMt/wCh&#xA;I/1Qo3q8TetKPgpy/uzywCB/L1W/7WU9TjPbPGJDgsb3t9Fc/fs9J8twzQeXdLgmQxzRWcCSRsKM&#xA;rLEoII8QczMYqI9zy+tkJZ5kbgzl97DPzb03WIH0bzVods9zqejTsskUSl2aCZaNULUkAinT9o5j&#xA;6qJFTjzDvPZ7PikMmnzHhhlHXvH4+xJLryFrFn+U+ntbQOfMunXKayYwOUpnL1ZaA1LLGRUdyvjl&#xA;RwEYhX1Ddzsfa2KfaM+IjwJx8Pyqv1/enX5b+WtQufLuu6hrML2mpeapZpJkYUeOCRWWMUO+3qMQ&#xA;D2plunxkxJPOTg9ta2Ec+KGI8UNOBXmRz+4JJ5S87X3kbTP8K+Y9GvnuLF5FsLi0i9WO4R3LjiSV&#xA;ru2xHbrQjKsWY4hwyB2c/tDsyGvyfmMGSFTA4hI0Y7UjvyxtvMs/nrzJrWs6XNpo1CKJ4klUgBWP&#xA;7tKmlWVFHLwPWmT04kZykRVtHbk8EdJhxYpifATy+37eSbflTp1/Zf4m+t28lv62s3MkPqKV5oaU&#xA;Za9VPiMnpokcV/znC7fzQn4PCQaxRumOflt5lk8sSz+UdS0m/bU5tTkMbww8ovSl4r6pYlTwHEkk&#xA;A7b5Tp8nB6CDdu07a0Q1QGpxzh4Yxjmd7F7e/wDSk1x5c0Hyr5h1WPzd5dn1XS7ydrjTNWtlkcKs&#xA;hJ9KTi8a1/GvscrOOMJHjjY6FzYa3Nq8MDpssceSMalA106jY/jzZ7+WUHleVr++0Py3PosNUiiu&#xA;7pSHuENS3AMzsqqRvQ0O3cbZWnEdzGNPPduT1A4YZswynnUf4ffsFL8ltJ1PTPLupw6hbSWssmqX&#xA;EiJKpUsnCNOQr25IRXHSRMYm+9n7TajHlzwMCJDw48veT+l4x+YcH5gWevTXWuadYaMNWlu57OV7&#xA;z1Bwg4twZ6OteMgpVV2DGgA2MtFgkeIxsnzP6KcDH2xqYQEIyqI8h+lOPLX5MfmTrej2WpXetadb&#xA;W2oQRXUUZt5DPGkyCQK/pLaAMAQD9OWR0+EcoR+V/fbTPtLUS55JfOvuZDZ/844amBxv/Ol1PEft&#xA;RJbKR26Ncy3R7ZfGdcqHuAH3OJPJKX1En3ljXmD/AJx91vS9cS38uHULuyukt/SvY57a1ihl9Y/W&#xA;TcrD9WbgI1Rk4Kx6jrShOSR5ksNnvvljyxpXlrTBpumCUW/NpCZ5ZJ5CzUBJeUs3QAZBU2xVjuvf&#xA;8pZ5Y/4y3n/UK2Uz+uPx+52ek/xfN7of7pkWXOsYv5J8my+XJ9blkuVuBqt893GFUrwRiSFapO/x&#xA;ZRhxcF+Zdt2n2kNSMYArw4CLKMvdS7FXYq7FXYq7FXYq7FXYq7FXYq7FXYq7FXYq7FXYq7FXYq7F&#xA;XYq7FXYql2uf4e+qp+nfqn1X1F9P696Xp+r+xx9X4eXh3xVMRSgp07UxV2KuxV2KuxVC3P6M+vWf&#xA;1n0/rtZPqPOnOvA+p6dd/sdadsiasXzboeJwS4b4duLu57X8UVkml2KuxV2KuxV2KuxV2KuxV2Ku&#xA;xV2KuxV2KuxV2KuxV2KuxV2KuxV2KuxV2KuxV//Z</xmpGImg:image>
               </rdf:li>
            </rdf:Alt>
         </xmp:Thumbnails>
         <xmpTPg:MaxPageSize rdf:parseType="Resource">
            <stDim:w>300.000000</stDim:w>
            <stDim:h>37.000000</stDim:h>
            <stDim:unit>Pixels</stDim:unit>
         </xmpTPg:MaxPageSize>
         <xmpTPg:NPages>1</xmpTPg:NPages>
         <xmpTPg:HasVisibleTransparency>False</xmpTPg:HasVisibleTransparency>
         <xmpTPg:HasVisibleOverprint>False</xmpTPg:HasVisibleOverprint>
         <xmpTPg:PlateNames>
            <rdf:Seq>
               <rdf:li>Cyan</rdf:li>
               <rdf:li>Magenta</rdf:li>
               <rdf:li>Yellow</rdf:li>
               <rdf:li>Black</rdf:li>
            </rdf:Seq>
         </xmpTPg:PlateNames>
         <xmpTPg:SwatchGroups>
            <rdf:Seq>
               <rdf:li rdf:parseType="Resource">
                  <xmpG:groupName>Default Swatch Group</xmpG:groupName>
                  <xmpG:groupType>0</xmpG:groupType>
               </rdf:li>
            </rdf:Seq>
         </xmpTPg:SwatchGroups>
         <dc:format>image/svg+xml</dc:format>
         <xmpMM:DocumentID>xmp.did:989a0184-10d6-c74c-a48e-9a38bcca65b1</xmpMM:DocumentID>
         <xmpMM:InstanceID>xmp.iid:989a0184-10d6-c74c-a48e-9a38bcca65b1</xmpMM:InstanceID>
         <xmpMM:OriginalDocumentID>xmp.did:23586069-6f3d-d34d-a41f-3bf867be24ff</xmpMM:OriginalDocumentID>
         <xmpMM:History>
            <rdf:Seq>
               <rdf:li rdf:parseType="Resource">
                  <stEvt:action>saved</stEvt:action>
                  <stEvt:instanceID>xmp.iid:23586069-6f3d-d34d-a41f-3bf867be24ff</stEvt:instanceID>
                  <stEvt:when>2018-03-18T17:25:15+01:00</stEvt:when>
                  <stEvt:softwareAgent>Adobe Illustrator CC (Windows)</stEvt:softwareAgent>
                  <stEvt:changed>/</stEvt:changed>
               </rdf:li>
               <rdf:li rdf:parseType="Resource">
                  <stEvt:action>saved</stEvt:action>
                  <stEvt:instanceID>xmp.iid:989a0184-10d6-c74c-a48e-9a38bcca65b1</stEvt:instanceID>
                  <stEvt:when>2018-03-18T17:36:38+01:00</stEvt:when>
                  <stEvt:softwareAgent>Adobe Illustrator CC (Windows)</stEvt:softwareAgent>
                  <stEvt:changed>/</stEvt:changed>
               </rdf:li>
            </rdf:Seq>
         </xmpMM:History>
         <xmpMM:DerivedFrom rdf:parseType="Resource">
            <stRef:instanceID>xmp.iid:535301ac-dd63-bd4b-aefe-d87f47f3dadf</stRef:instanceID>
            <stRef:documentID>xmp.did:535301ac-dd63-bd4b-aefe-d87f47f3dadf</stRef:documentID>
            <stRef:originalDocumentID>xmp.did:23586069-6f3d-d34d-a41f-3bf867be24ff</stRef:originalDocumentID>
         </xmpMM:DerivedFrom>
      </rdf:Description>
   </rdf:RDF>
</x:xmpmeta>
                                                                                                    
                                                                                                    
                                                                                                    
                                                                                                    
                                                                                                    
                                                                                                    
                                                                                                    
                                                                                                    
                                                                                                    
                                                                                                    
                                                                                                    
                                                                                                    
                                                                                                    
                                                                                                    
                                                                                                    
                                                                                                    
                                                                                                    
                                                                                                    
                                                                                                    
                                                                                                    
                           
<?xpacket end="w"?>
	</metadata>
<rect x="69.329" y="-0.113" fill="#EC1C24" width="1.071" height="37.225"/>
<g>
	
		<rect x="52.567" y="3.541" transform="matrix(-0.9136 -0.4066 0.4066 -0.9136 98.8957 33.5258)" fill="#F16522" width="0.886" height="5.431"/>
	
		<rect x="55.839" y="0.059" transform="matrix(-0.4694 -0.883 0.883 -0.4694 80.25 53.7733)" fill="#F16522" width="0.886" height="5.431"/>
	<path fill="#EC1C24" d="M46.478,27.341l-0.825-0.367l-0.622-0.277l-6.453-2.872l-1.088-0.484
		c-0.717-0.319,6.645-18.426,6.645-18.426c0.335-0.752,1.187-1.103,1.904-0.784l8.988,4c0.717,0.319,1.027,1.187,0.692,1.94
		C55.719,10.07,47.194,27.66,46.478,27.341z"/>
	
		<ellipse transform="matrix(-0.3276 -0.9448 0.9448 -0.3276 46.5209 64.5917)" fill="#F9EC23" cx="46.244" cy="15.742" rx="2.392" ry="5.077"/>
	<path fill="#EC1C24" d="M12.082,29.57"/>
	<path fill="#FFFFFF" d="M12.1,28.744l34.444-4.379c0,0,0.611,2.41,0.638,3.176c0.026,0.766,0,0,0,0l0,0l0,0L12.1,31.435"/>
	<path fill="#E75225" d="M46.788,25.307c0.005-0.004,0.009-0.008,0.014-0.011C44.291,15.45,36.063,8.68,27.267,9.763
		S12.13,19.409,12.083,29.57l34.5-4.249l0.203-0.025L46.788,25.307z"/>
	<path fill="#E75225" d="M27.873,9.654c0.038,0.305-0.179,0.583-0.484,0.62l0,0c-0.305,0.038-0.583-0.179-0.62-0.484l-0.068-0.552
		c-0.038-0.305,0.179-0.583,0.484-0.62l0,0c0.305-0.038,0.583,0.179,0.62,0.484L27.873,9.654z"/>
	
		<rect x="11.755" y="28.032" transform="matrix(-0.9925 0.1222 -0.1222 -0.9925 62.1561 53.1806)" fill="#20225B" width="35.385" height="0.928"/>
	<circle fill="#FFFFFF" cx="19.633" cy="19.834" r="0.928"/>
	<circle fill="#FFFFFF" cx="27.118" cy="18.913" r="0.928"/>
	<circle fill="#FFFFFF" cx="24.047" cy="22.447" r="0.928"/>
	<circle fill="#FFFFFF" cx="36.565" cy="15.736" r="2.019"/>
	<circle fill="#FFFFFF" cx="23.313" cy="16.483" r="0.928"/>
	<circle fill="#231F20" cx="36.565" cy="15.736" r="0.739"/>
	<g>
		<path fill="#231F20" d="M44.253,15.785c-0.088,0.02-0.234-0.078-0.261-0.193c-0.034-0.149,0.242-0.562,0.719-0.672
			c0.488-0.112,0.902,0.124,1.02,0.638c0.106,0.46-0.084,1.028-0.752,1.182c-0.015,0.003-0.026,0.006-0.04,0.009
			c-0.003,0.254-0.005,0.464,0.001,0.573c0.001,0.039-0.035,0.065-0.083,0.076c-0.081,0.019-0.186-0.003-0.202-0.075
			c-0.037-0.159-0.04-0.358-0.048-0.545c-0.081,0.001-0.13-0.027-0.136-0.054c-0.004-0.017,0.011-0.035,0.048-0.043
			c0.022-0.005,0.048-0.007,0.084-0.005c-0.018-0.381-0.017-0.812,0.028-1.339c0.003-0.054,0.042-0.085,0.094-0.096
			c0.103-0.024,0.254,0.027,0.273,0.112C45,15.36,45.002,15.37,45,15.377c-0.024,0.383-0.043,0.837-0.055,1.221
			c0.397-0.206,0.572-0.755,0.471-1.192c-0.032-0.139-0.089-0.268-0.175-0.373c-0.098-0.02-0.197-0.015-0.289,0.006
			c-0.29,0.067-0.553,0.334-0.633,0.677C44.307,15.758,44.285,15.777,44.253,15.785z"/>
		<path fill="#231F20" d="M47.813,16.526c-0.043,0.113-0.157,0.225-0.263,0.25c-0.143,0.033-0.298-0.035-0.353-0.325
			c-0.041,0.241-0.124,0.449-0.297,0.489c-0.184,0.042-0.371-0.1-0.438-0.394c-0.102-0.443,0.13-1.199-0.001-1.767
			c-0.026-0.112-0.068-0.159-0.123-0.164c-0.247,0.068-0.474,0.779-0.386,1.158c0.031,0.135,0.103,0.229,0.231,0.232
			c0.043,0.001,0.066,0.017,0.07,0.034s-0.014,0.039-0.062,0.05c-0.308,0.071-0.491-0.168-0.538-0.372
			c-0.099-0.43,0.179-1.085,0.597-1.182c0.213-0.049,0.483,0.032,0.549,0.319c0.118,0.511-0.097,1.209-0.009,1.591
			c0.037,0.159,0.114,0.209,0.191,0.191c0.139-0.032,0.17-0.52,0.173-0.827c0.004-0.486,0.011-1.075,0.032-1.408
			c0.002-0.057,0.055-0.098,0.117-0.112c0.095-0.022,0.216,0.014,0.242,0.126c0.003,0.013,0.006,0.027,0.006,0.045
			c-0.009,0.497-0.097,1.608-0.016,1.96c0.018,0.078,0.054,0.119,0.109,0.107c0.037-0.008,0.065-0.036,0.089-0.067
			c0.211-0.444,0.219-1.447,0.179-2.226c-0.002-0.057,0.044-0.096,0.106-0.11c0.099-0.023,0.227,0.012,0.253,0.127
			C48.344,14.569,48.145,16.189,47.813,16.526z"/>
	</g>
	<polygon fill="#231F20" points="48.809,29.014 11.297,33.178 10.452,31.618 49.383,27.297 	"/>
	<circle fill="#231F20" cx="17.724" cy="33.684" r="2.671"/>
	<circle fill="#231F20" cx="43.154" cy="30.998" r="2.671"/>
	<circle fill="#FFFFFF" cx="17.724" cy="33.684" r="1.332"/>
	<circle fill="#FFFFFF" cx="43.154" cy="30.998" r="1.332"/>
	<circle fill="#231F20" cx="17.724" cy="33.684" r="0.527"/>
	<circle fill="#231F20" cx="43.154" cy="30.998" r="0.527"/>
	<g>
		<g>
			<path fill="#FFFFFF" d="M40.028,23.277c1.882,0.264,3.89-0.15,5.473-1.218c0.239-0.161,0.014-0.551-0.227-0.389
				c-1.476,0.995-3.364,1.419-5.126,1.172C39.863,22.803,39.741,23.237,40.028,23.277L40.028,23.277z"/>
		</g>
	</g>
</g>
<g>
	<path fill="#EC1C24" d="M97.714,18.842c0,4.308-3.03,7.457-6.893,7.457c-2.169,0-3.892-1.01-4.991-2.555v6.922
		c0,0.772-0.535,1.337-1.307,1.337c-0.802,0-1.337-0.564-1.337-1.337V12.959c0-0.772,0.535-1.307,1.337-1.307
		c0.772,0,1.307,0.535,1.307,1.307v0.892c1.099-1.545,2.822-2.496,4.991-2.496C94.803,11.355,97.714,14.624,97.714,18.842z
		 M95.07,18.872c0-2.793-1.901-5.051-4.605-5.051c-2.674,0-4.635,2.258-4.635,5.051c0,2.763,1.961,4.961,4.635,4.961
		C93.169,23.833,95.07,21.635,95.07,18.872z"/>
	<path fill="#EC1C24" d="M113.254,19.495h-9.715c0.297,2.556,2.169,4.457,4.872,4.457c2.555,0,3.417-1.248,4.249-1.248
		c0.624,0,1.04,0.387,1.04,0.98c0,1.277-2.317,2.614-5.377,2.614c-4.337,0-7.457-3.357-7.457-7.486c0-4.13,2.912-7.457,7.13-7.457
		c4.367,0,6.862,3.357,6.862,6.536C114.858,18.872,114.294,19.495,113.254,19.495z M103.599,17.743h8.615
		c-0.327-2.644-2.05-4.129-4.278-4.129C105.619,13.613,103.985,15.366,103.599,17.743z"/>
	<path fill="#EC1C24" d="M127.16,12.871c0,0.743-0.505,1.218-1.277,1.218c-0.476,0-1.01-0.208-1.872-0.208
		c-1.634,0-2.674,1.337-2.674,3.446v7.368c0,0.772-0.564,1.308-1.307,1.308c-0.802,0-1.337-0.535-1.337-1.308V12.959
		c0-0.772,0.535-1.307,1.307-1.307s1.337,0.535,1.337,1.307v0.476c0.772-1.218,1.99-2.08,3.595-2.08
		C125.942,11.355,127.16,11.801,127.16,12.871z"/>
	<path fill="#EC1C24" d="M134.114,26.299c-3.12,0-5.793-1.485-5.793-2.911c0-0.654,0.476-0.98,1.04-0.98
		c0.98,0,2.08,1.723,4.991,1.723c1.723,0,2.674-0.832,2.674-1.99c0-3.298-8.318-1.426-8.318-6.714c0-2.288,2.02-4.07,5.407-4.07
		c2.674,0,4.902,1.218,4.902,2.376c0,0.624-0.446,0.98-1.01,0.98c-0.98,0-1.961-1.159-4.159-1.159c-1.604,0-2.555,0.743-2.555,1.813
		c0,3.09,8.319,1.426,8.319,6.654C139.61,24.427,137.679,26.299,134.114,26.299z"/>
	<path fill="#EC1C24" d="M149.534,11.355c4.1,0,7.278,3.327,7.278,7.457c0,4.129-3.179,7.486-7.278,7.486
		c-4.07,0-7.249-3.357-7.249-7.486C142.285,14.683,145.464,11.355,149.534,11.355z M149.564,13.821
		c-2.674,0-4.635,2.198-4.635,4.991c0,2.763,1.961,5.021,4.635,5.021c2.704,0,4.605-2.258,4.605-5.021
		C154.169,16.02,152.268,13.821,149.564,13.821z"/>
	<path fill="#EC1C24" d="M173.304,17.238v7.457c0,0.772-0.535,1.308-1.308,1.308s-1.337-0.535-1.337-1.308v-7.041
		c0-2.347-1.366-3.833-3.565-3.833c-2.05,0-3.356,1.248-3.564,3.238v7.635c0,0.772-0.564,1.308-1.308,1.308
		c-0.802,0-1.337-0.535-1.337-1.308V12.959c0-0.772,0.535-1.307,1.308-1.307s1.337,0.535,1.337,1.307v0.476
		c0.891-1.307,2.377-2.08,4.248-2.08C171.135,11.355,173.304,13.643,173.304,17.238z"/>
	<path fill="#EC1C24" d="M191.666,12.959v11.735c0,0.772-0.535,1.308-1.308,1.308c-0.802,0-1.337-0.535-1.337-1.308v-0.98
		c-1.099,1.575-2.822,2.585-4.991,2.585c-3.861,0-6.892-3.179-6.892-7.486c0-4.219,2.911-7.457,6.892-7.457
		c2.169,0,3.893,0.951,4.991,2.496v-0.892c0-0.772,0.535-1.307,1.337-1.307C191.131,11.652,191.666,12.187,191.666,12.959z
		 M189.021,18.813c0-2.793-1.901-4.991-4.604-4.991c-2.674,0-4.635,2.198-4.635,4.991c0,2.763,1.961,5.021,4.635,5.021
		C187.12,23.833,189.021,21.575,189.021,18.813z"/>
	<path fill="#EC1C24" d="M198.086,5.443c0.772,0,1.337,0.535,1.337,1.307v17.944c0,0.772-0.564,1.308-1.308,1.308
		c-0.802,0-1.337-0.535-1.337-1.308V6.75C196.778,5.978,197.313,5.443,198.086,5.443z"/>
	<path fill="#EC1C24" d="M231.45,13.435l-3.685,11.082c-0.326,1.01-1.01,1.515-2.109,1.515c-1.01,0-1.723-0.505-1.931-1.545
		l-3.06-9.774l-3.09,9.893c-0.208,0.951-0.892,1.426-1.961,1.426c-0.98,0-1.604-0.475-1.901-1.396l-3.654-11.081
		c-0.356-1.188,0.237-1.931,1.218-1.931c0.772,0,1.159,0.446,1.337,1.278l3.03,10.131l3.238-9.982
		c0.238-0.951,0.862-1.426,1.842-1.426c0.922,0,1.545,0.446,1.813,1.456l3.238,9.982l3.119-10.25
		c0.208-0.802,0.684-1.188,1.396-1.188C231.242,11.623,231.776,12.336,231.45,13.435z"/>
	<path fill="#EC1C24" d="M248.239,12.959v11.735c0,0.772-0.535,1.308-1.308,1.308c-0.802,0-1.337-0.535-1.337-1.308v-0.98
		c-1.099,1.575-2.822,2.585-4.991,2.585c-3.861,0-6.892-3.179-6.892-7.486c0-4.219,2.911-7.457,6.892-7.457
		c2.169,0,3.893,0.951,4.991,2.496v-0.892c0-0.772,0.535-1.307,1.337-1.307C247.704,11.652,248.239,12.187,248.239,12.959z
		 M245.595,18.813c0-2.793-1.901-4.991-4.604-4.991c-2.674,0-4.635,2.198-4.635,4.991c0,2.763,1.961,5.021,4.635,5.021
		C243.693,23.833,245.595,21.575,245.595,18.813z"/>
	<path fill="#EC1C24" d="M256.293,7.612c0,0.892-0.742,1.634-1.634,1.634c-0.921,0-1.634-0.743-1.634-1.634
		c0-0.891,0.713-1.634,1.634-1.634C255.551,5.978,256.293,6.721,256.293,7.612z M254.688,26.002c-0.802,0-1.337-0.535-1.337-1.308
		V12.959c0-0.772,0.535-1.307,1.308-1.307s1.337,0.535,1.337,1.307v11.735C255.996,25.467,255.432,26.002,254.688,26.002z"/>
	<path fill="#EC1C24" d="M268.296,23.328c0.683,0,1.04,0.476,1.04,0.98c0,1.01-1.219,1.99-3.298,1.99
		c-2.704,0-4.308-1.574-4.308-4.635v-7.605h-1.575c-0.683,0-1.158-0.475-1.158-1.188c0-0.684,0.476-1.159,1.158-1.159h1.575V9.454
		c0-0.772,0.534-1.337,1.307-1.337s1.337,0.564,1.337,1.337v2.258h3.238c0.684,0,1.159,0.475,1.159,1.188
		c0,0.683-0.476,1.158-1.159,1.158h-3.208v7.844c0,1.337,0.623,1.931,1.752,1.931C267.167,23.833,267.701,23.328,268.296,23.328z"/>
	<path fill="#EC1C24" d="M283.271,19.495h-9.715c0.298,2.556,2.169,4.457,4.873,4.457c2.555,0,3.416-1.248,4.248-1.248
		c0.624,0,1.04,0.387,1.04,0.98c0,1.277-2.317,2.614-5.378,2.614c-4.337,0-7.456-3.357-7.456-7.486c0-4.13,2.911-7.457,7.13-7.457
		c4.367,0,6.862,3.357,6.862,6.536C284.875,18.872,284.311,19.495,283.271,19.495z M273.615,17.743h8.616
		c-0.327-2.644-2.05-4.129-4.278-4.129C275.636,13.613,274.002,15.366,273.615,17.743z"/>
	<path fill="#EC1C24" d="M297.178,12.871c0,0.743-0.506,1.218-1.278,1.218c-0.475,0-1.01-0.208-1.871-0.208
		c-1.634,0-2.674,1.337-2.674,3.446v7.368c0,0.772-0.564,1.308-1.308,1.308c-0.802,0-1.337-0.535-1.337-1.308V12.959
		c0-0.772,0.535-1.307,1.308-1.307s1.337,0.535,1.337,1.307v0.476c0.772-1.218,1.99-2.08,3.595-2.08
		C295.959,11.355,297.178,11.801,297.178,12.871z"/>
</g>
</svg>
