<?xml version="1.0" encoding="utf-8"?>
<!-- Generator: Adobe Illustrator 21.0.0, SVG Export Plug-In . SVG Version: 6.00 Build 0)  -->
<svg version="1.1" id="Layer_1" xmlns="http://www.w3.org/2000/svg" xmlns:xlink="http://www.w3.org/1999/xlink" x="0px" y="0px"
	 viewBox="0 0 341.6 42" style="enable-background:new 0 0 341.6 42;" xml:space="preserve">
<style type="text/css">
	.st0{fill:#D70F64;}
	.st1{fill:#D60365;}
	.st2{fill:#FFFFFF;}
</style>
<g>
	<g>
		<path class="st0" d="M203,16.3h2.5v-2.4c0-2.9,1.6-4.8,4.8-4.8l1.6,0.3v2.9l-1.7-0.3c-1,0-1.4,0.6-1.4,1.6v2.7h3.2v2.9h-3.2v12
			h-3.2v-12H203V16.3z"/>
		<path class="st0" d="M220.1,16c4.1,0,7.8,3.2,7.8,7.8c0,4.6-3.6,7.8-7.8,7.8s-7.8-3.2-7.8-7.8C212.3,19.1,216,16,220.1,16z
			 M220.1,28.7c3,0,4.6-2.2,4.6-4.9c0-2.7-1.6-4.9-4.6-4.9c-3,0-4.6,2.2-4.6,4.9C215.5,26.4,217.1,28.7,220.1,28.7z"/>
		<path class="st0" d="M237,16c4.1,0,7.8,3.2,7.8,7.8c0,4.6-3.6,7.8-7.8,7.8s-7.8-3.2-7.8-7.8C229.3,19.1,232.9,16,237,16z
			 M237,28.7c3,0,4.6-2.2,4.6-4.9c0-2.7-1.6-4.9-4.6-4.9c-3,0-4.6,2.2-4.6,4.9C232.4,26.4,234,28.7,237,28.7z"/>
		<path class="st0" d="M261.4,31.2h-2.9l-0.3-1.3l-0.2-0.2l-0.2,0.2c-1,1-2.5,1.6-4.1,1.6c-4.1,0-7.6-3.2-7.6-7.8
			c0-4.6,3.5-7.8,7.6-7.8c1.6,0,3.2,0.6,4.1,1.6l0.2,0.2l0.2-0.2V9.2h3.2V31.2z M253.9,18.8c-3,0-4.6,2.2-4.6,4.9
			c0,2.7,1.6,4.9,4.6,4.9c2.7,0,4.6-2.2,4.6-4.9C258.5,21.1,256.6,18.8,253.9,18.8z"/>
		<path class="st0" d="M264.6,16.3h2.9l0.3,1.3l0.2,0.2l0.2-0.2c1-1,2.5-1.6,4.1-1.6c4.1,0,7.6,3.2,7.6,7.8c0,4.6-3.5,7.8-7.6,7.8
			c-1.6,0-3.2-0.6-4.1-1.6l-0.2-0.2l-0.2,0.2v8h-3.1V16.3z M272,28.7c3,0,4.6-2.2,4.6-4.9c0-2.7-1.6-4.9-4.6-4.9
			c-2.7,0-4.6,2.2-4.6,4.9C267.4,26.4,269.3,28.7,272,28.7z"/>
		<path class="st0" d="M287.8,21.9h2.6v-0.7c0-1.8-1.2-2.6-2.9-2.6c-1.4,0-2.3,0.7-2.8,2l-2.8-0.6c0.6-2.5,2.8-4.1,5.7-4.1
			c4,0,6,2,6,5.9v9.3h-2.6l-0.3-2c-1,1.5-2.6,2.2-4.7,2.2c-2.7,0-4.6-1.6-4.6-4.6C281.3,23.8,283.9,21.9,287.8,21.9z M286.4,28.7
			c1,0,2-0.3,2.7-1c0.8-0.7,1.2-1.6,1.2-2.8v-0.3h-2.7c-1.9,0-3.1,0.9-3.1,2.3C284.5,27.9,285.2,28.7,286.4,28.7z"/>
		<path class="st0" d="M296.4,16.3h2.9l0.3,1.3l0.2,0.2l0.2-0.2c0.6-1,2.2-1.6,3.5-1.6c3.8,0,6,2.5,6,6v9.2h-3.2V22
			c-0.1-2-1.1-3.2-3.2-3.2c-1.9,0-3.4,1.5-3.5,3.4v9h-3.2V16.3z"/>
		<path class="st0" d="M326.6,31.2h-2.9l-0.3-1.3l-0.2-0.2l-0.2,0.2c-1,1-2.5,1.6-4.1,1.6c-4.1,0-7.6-3.2-7.6-7.8
			c0-4.6,3.5-7.8,7.6-7.8c1.6,0,3.2,0.6,4.1,1.6l0.2,0.2l0.2-0.2V9.2h3.2V31.2z M319.2,18.8c-3,0-4.6,2.2-4.6,4.9
			c0,2.7,1.6,4.9,4.6,4.9c2.7,0,4.6-2.2,4.6-4.9C323.8,21.1,321.9,18.8,319.2,18.8z"/>
		<path class="st0" d="M335.7,21.9h2.6v-0.7c0-1.8-1.2-2.6-2.9-2.6c-1.4,0-2.3,0.7-2.8,2l-2.8-0.6c0.6-2.5,2.8-4.1,5.7-4.1
			c4,0,6,2,6,5.9v9.3h-2.6l-0.3-2c-1,1.5-2.6,2.2-4.7,2.2c-2.7,0-4.6-1.6-4.6-4.6C329.2,23.8,331.7,21.9,335.7,21.9z M334.3,28.7
			c1,0,2-0.3,2.7-1c0.8-0.7,1.2-1.6,1.2-2.8v-0.3h-2.7c-1.9,0-3.1,0.9-3.1,2.3C332.4,27.9,333.1,28.7,334.3,28.7z"/>
	</g>
	<g>
		<path class="st0" d="M180.9,26.5c1.8,0,3.3-1.3,3.3-2.9h-6.6C177.6,25.2,179,26.5,180.9,26.5z"/>
		<g>
			<path class="st0" d="M192,12.7c0.8-0.6,1.2-1.6,1.2-2.7c0-2-1.6-3.5-3.6-3.5c-1.3,0-2.4,0.6-3,1.6c-1.8-0.9-3.8-1.3-5.8-1.3
				c-2.1,0-4.1,0.5-5.8,1.3c-0.6-1-1.7-1.6-3-1.6c-2,0-3.6,1.6-3.6,3.5c0,1.1,0.5,2,1.2,2.7c-1.5,2.2-2.3,4.7-2.3,7.5
				c0,7.4,6,13.5,13.5,13.5c7.4,0,13.5-6,13.5-13.5C194.3,17.4,193.5,14.8,192,12.7z M180.9,32.6c-6.8,0-12.4-5.6-12.4-12.4
				c0-2.6,0.8-5,2.1-7c1.2-1.8,2.9-3.3,4.9-4.2c1.6-0.8,3.5-1.2,5.4-1.2c1.9,0,3.8,0.4,5.4,1.2c2,1,3.6,2.4,4.9,4.2
				c1.3,2,2.1,4.4,2.1,7C193.3,27,187.7,32.6,180.9,32.6z"/>
			<path class="st0" d="M180.9,22.8c0.2,0.1,2.3-0.7,2.3-1.7c0-0.6-1.7-0.7-2.3-0.7c-0.6,0-2.3,0.1-2.3,0.7
				C178.5,22.1,180.7,22.9,180.9,22.8z"/>
			<path class="st0" d="M188.7,14.4c-1.2-0.8-3.8-1.2-4.8,0.1c0,0-1.3,1.4,0,2.8c1.3,1.4,2.2,2.8,2.5,3.9c0.3,1.2,0.8,1.6,1.7,1.6
				c0.9,0,2.7-1.4,3-3.7C191.3,16.8,189.9,15.1,188.7,14.4z M186,17.3c-0.4,0-0.7-0.3-0.7-0.7c0-0.4,0.3-0.7,0.7-0.7
				c0.4,0,0.7,0.3,0.7,0.7C186.7,17,186.4,17.3,186,17.3z"/>
			<path class="st0" d="M177.8,14.5c-1-1.3-3.6-0.9-4.8-0.1c-1.2,0.8-2.6,2.4-2.4,4.7c0.2,2.3,2,3.7,3,3.7c0.9,0,1.4-0.5,1.7-1.6
				c0.3-1.2,1.3-2.5,2.5-3.9C179.1,15.8,177.8,14.5,177.8,14.5z M175.9,17.3c-0.4,0-0.7-0.3-0.7-0.7c0-0.4,0.3-0.7,0.7-0.7
				s0.7,0.3,0.7,0.7C176.6,17,176.3,17.3,175.9,17.3z"/>
		</g>
	</g>
</g>
<g>
	<g id="Font">
		<path class="st1" d="M38.3,16.7h2.5v-2.4c0-2.9,1.6-4.8,4.8-4.8l1.6,0.3v2.9l-1.7-0.3c-1,0-1.4,0.6-1.4,1.6v2.7h3.2v2.9H44v12.1
			h-3.2V19.5h-2.5V16.7z"/>
		<path class="st1" d="M55.4,16.4c4.1,0,7.8,3.2,7.8,7.8c0,4.6-3.6,7.8-7.8,7.8s-7.8-3.2-7.8-7.8C47.7,19.5,51.3,16.4,55.4,16.4z
			 M55.4,29.1c3,0,4.6-2.2,4.6-4.9c0-2.7-1.6-4.9-4.6-4.9c-3,0-4.6,2.2-4.6,4.9C50.8,26.8,52.4,29.1,55.4,29.1z"/>
		<path class="st1" d="M72.4,16.4c4.1,0,7.8,3.2,7.8,7.8c0,4.6-3.6,7.8-7.8,7.8s-7.8-3.2-7.8-7.8C64.6,19.5,68.3,16.4,72.4,16.4z
			 M72.4,29.1c3,0,4.6-2.2,4.6-4.9c0-2.7-1.6-4.9-4.6-4.9c-3,0-4.6,2.2-4.6,4.9C67.8,26.8,69.4,29.1,72.4,29.1z"/>
		<path class="st1" d="M96.8,31.6h-2.9l-0.3-1.3l-0.2-0.2l-0.2,0.2c-1,1-2.5,1.6-4.1,1.6c-4.1,0-7.6-3.2-7.6-7.8
			c0-4.6,3.5-7.8,7.6-7.8c1.6,0,3.2,0.6,4.1,1.6l0.2,0.2l0.2-0.2V9.6h3.2V31.6z M89.3,19.2c-3,0-4.6,2.2-4.6,4.9
			c0,2.7,1.6,4.9,4.6,4.9c2.7,0,4.6-2.2,4.6-4.9C93.9,21.4,92,19.2,89.3,19.2z"/>
		<path class="st1" d="M106.6,16.4c4.1,0,7.8,3.2,7.8,7.8c0,4.6-3.6,7.8-7.8,7.8c-4.1,0-7.8-3.2-7.8-7.8
			C98.8,19.5,102.5,16.4,106.6,16.4z M106.6,29.1c3,0,4.6-2.2,4.6-4.9c0-2.7-1.6-4.9-4.6-4.9s-4.6,2.2-4.6,4.9
			C102,26.8,103.6,29.1,106.6,29.1z"/>
		<path class="st1" d="M116.4,16.7h2.9l0.3,1.6l0.2,0.2l0.2-0.2c1-1.3,2.2-1.9,3.5-1.9c0.6,0,1,0,1.6,0.3v2.9h-1.9
			c-1.9,0-3.4,1.5-3.5,3.4v8.7h-3.2V16.7z"/>
		<path class="st1" d="M132.9,22.3h2.6v-0.7c0-1.8-1.2-2.6-2.9-2.6c-1.4,0-2.3,0.7-2.8,2l-2.8-0.6c0.6-2.5,2.8-4.2,5.7-4.2
			c4,0,6,2,6,5.9v9.3H136l-0.3-2c-1,1.5-2.6,2.2-4.7,2.2c-2.7,0-4.6-1.6-4.6-4.6C126.4,24.2,129,22.3,132.9,22.3z M131.6,29.1
			c1,0,2-0.3,2.7-1c0.8-0.7,1.2-1.6,1.2-2.8v-0.3h-2.7c-1.9,0-3.1,0.9-3.1,2.3C129.7,28.3,130.4,29.1,131.6,29.1z"/>
	</g>
	<g id="Cloche">
		<path class="st1" d="M18.8,31.2c1.1-0.4,9.1-3.6,10.7-4.2c0.2-0.1,0.2-0.3,0.1-0.4c-0.2-0.2-0.5-0.4-1.1-0.4
			c-0.8,0-7.7,2.2-7.7,2.2s-3.2,0.5-3.6,0.5c-0.4-0.1-0.5-0.3-0.5-0.6c0-0.3,0.2-0.6,0.8-0.6c0.6-0.1,4.1-0.3,4.7-0.6
			c0.6-0.4,0.5-1,0.2-1.1c-0.5-0.2-10.4-0.2-15.3-0.1c-0.7,0-2.2,0-4.4,0c0.4,2.4,1.1,4.5,2.6,6.4c1.4-0.7,3-1.2,4.8-1.1
			C11.4,31.1,17.5,31.6,18.8,31.2z"/>
		<path class="st1" d="M30.8,22.6h-1.3h0c-0.3-7-5.9-12.7-12.9-13v0V8.3c0-0.3-0.2-0.6-0.6-0.6c-0.3,0-0.6,0.2-0.6,0.6v1.3v0
			c-7,0.3-12.7,5.9-12.9,13H1.4c-0.3,0-0.6,0.2-0.6,0.6c0,0.3,0.2,0.6,0.6,0.6h29.4c0.3,0,0.6-0.2,0.6-0.6
			C31.4,22.8,31.2,22.6,30.8,22.6z M10.4,12.4c-0.9,1.1-2.9,4.1-3.1,8.3c0,0.4-0.3,0.7-0.6,0.7l-1.3,0c-0.4,0-0.7-0.5-0.6-1
			c0.4-1.7,1.7-5.4,5.5-8.1C10.4,12.2,10.5,12.3,10.4,12.4z"/>
	</g>
</g>
<rect x="154" y="0.3" class="st0" width="1.2" height="41.7"/>
</svg>
